<svg xmlns="http://www.w3.org/2000/svg" width="125" height="32" viewBox="0 0 125 32" fill="none">
<path fill-rule="evenodd" clip-rule="evenodd" d="M46.0404 14.1231C44.5373 17.435 43.2912 20.1891 43.2713 20.2434C43.2375 20.3355 43.3206 20.3421 44.5197 20.3421H45.8043L46.3278 19.1999L46.8513 18.0576L50.0766 18.0431L53.3018 18.0285L53.8167 19.1712L54.3316 20.3139L55.6327 20.3291C56.3483 20.3374 56.9338 20.3356 56.9338 20.3251C56.9338 20.3145 55.6881 17.5663 54.1656 14.218L51.3974 8.12999L50.0855 8.11578L48.7734 8.10156L46.0404 14.1231ZM79.84 14.222V20.3421H84.5083H89.1766L89.1612 19.1999L89.1457 18.0576L85.6668 18.0431L82.1879 18.0286V16.6752V15.3219H85.5666H88.9452V14.2502V13.1784H85.5666H82.1879V11.7682V10.3581H85.6811H89.1743V9.22993V8.10179H84.5071H79.84V14.222ZM120.942 9.38894L120.098 9.47603V10.5939V11.7118H119.267H118.437V12.6426V13.5733H119.267H120.098V15.7641C120.098 17.7456 120.108 17.9958 120.208 18.3816C120.485 19.4468 121.124 20.1043 122.144 20.3739C122.679 20.5152 123.671 20.4896 124.361 20.3167C124.674 20.2382 124.956 20.1478 124.989 20.1159C125.029 20.0761 124.952 19.7744 124.745 19.1564C124.578 18.6607 124.437 18.2551 124.431 18.2551C124.426 18.2551 124.286 18.3059 124.12 18.3679C123.921 18.4422 123.68 18.4807 123.412 18.4807C122.911 18.4807 122.634 18.3464 122.438 18.0087C122.303 17.7766 122.302 17.7667 122.285 15.6744L122.269 13.5733H123.474H124.679V12.6426V11.7118H123.476H122.274V10.4991V9.28634L122.03 9.29406C121.897 9.29835 121.407 9.34105 120.942 9.38894ZM51.2626 13.4041L52.3468 15.8578L50.1074 15.8725C48.8758 15.8807 47.8582 15.8775 47.846 15.8655C47.8292 15.849 49.5932 11.8052 50.0114 10.9018C50.0782 10.7573 50.0909 10.7514 50.1322 10.8454C50.1577 10.9031 50.6663 12.0545 51.2626 13.4041ZM103.944 11.5135C102.909 11.7074 102.093 12.1291 101.452 12.8C100.97 13.3049 100.72 13.7103 100.508 14.33C100.079 15.5894 100.163 17.0521 100.733 18.2269C101.242 19.2764 102.132 19.991 103.416 20.3815C103.891 20.5259 103.984 20.5346 105.037 20.5346C106.088 20.5346 106.184 20.5256 106.669 20.3812C107.401 20.1633 108.157 19.782 108.53 19.4432L108.845 19.1569L108.136 18.4837L107.427 17.8105L107.22 17.9738C106.748 18.3454 105.88 18.5935 105.052 18.5935C104.275 18.5935 103.59 18.3732 103.13 17.9751C102.93 17.8029 102.618 17.2745 102.552 17L102.515 16.8449H105.896H109.277L109.339 16.6898C109.434 16.4539 109.358 15.1054 109.219 14.5425C108.836 12.9945 107.858 12 106.325 11.5995C105.72 11.4414 104.553 11.3992 103.944 11.5135ZM114.829 11.5437C114.178 11.6767 113.697 11.9508 113.344 12.3908L113.123 12.6669L113.054 12.1893L112.985 11.7118H111.96H110.935V16.027V20.3421H112.019H113.102L113.125 17.8179C113.145 15.67 113.162 15.2517 113.242 15.0117C113.542 14.1137 114.237 13.6671 115.326 13.672C115.869 13.6745 116.259 13.7847 116.609 14.0341C116.837 14.1972 116.854 14.2009 116.914 14.1014C116.948 14.0436 117.174 13.6222 117.415 13.1651L117.854 12.3338L117.682 12.1915C117.178 11.7737 116.49 11.5426 115.66 11.5121C115.345 11.5005 114.971 11.5148 114.829 11.5437ZM61.7161 11.6337C61.1616 11.7657 60.5565 12.0932 60.161 12.4751L59.8066 12.8174L59.7755 12.589C59.7583 12.4633 59.7275 12.2145 59.7069 12.0362L59.6694 11.7118H58.6452H57.621V17.832V23.9522H58.709H59.7971V21.6991V19.446L60.0849 19.7178C60.4475 20.0603 60.9507 20.3059 61.6054 20.4598C62.2944 20.6218 63.5066 20.5925 64.1206 20.3991C65.5836 19.9381 66.5651 18.9163 66.9926 17.409C67.1405 16.8878 67.1415 15.2853 66.9944 14.7578C66.6462 13.51 65.6981 12.3945 64.5667 11.9016C63.7813 11.5595 62.524 11.4413 61.7161 11.6337ZM72.7684 11.6337C72.2139 11.7657 71.6088 12.0932 71.2133 12.4751L70.8589 12.8174L70.8277 12.589C70.8106 12.4633 70.7797 12.2145 70.7591 12.0362L70.7216 11.7118H69.6974H68.6732V17.832V23.9522H69.7613H70.8493V21.6991V19.446L71.1372 19.7178C71.4998 20.0603 72.003 20.3059 72.6576 20.4598C73.3466 20.6218 74.5589 20.5925 75.1729 20.3991C76.6359 19.9381 77.6174 18.9163 78.0449 17.409C78.1928 16.8878 78.1938 15.2853 78.0466 14.7578C77.6985 13.51 76.7504 12.3945 75.6189 11.9016C74.8336 11.5595 73.5762 11.4413 72.7684 11.6337ZM90.7403 11.7942C90.7584 11.8407 91.397 12.7851 92.1594 13.8929C92.9218 15.0008 93.5449 15.9341 93.5441 15.9671C93.5433 16 92.8697 16.9789 92.0472 18.1422C91.2248 19.3056 90.5511 20.277 90.5503 20.3008C90.5494 20.3247 91.1443 20.3374 91.8724 20.329L93.1962 20.3139L94.0915 18.9507C94.5839 18.2009 95.0028 17.5718 95.0222 17.5527C95.0416 17.5336 95.4755 18.1534 95.9865 18.93L96.9154 20.3421H98.2335C99.2865 20.3421 99.5459 20.3275 99.5233 20.2694C99.5076 20.2293 98.9856 19.4741 98.3632 18.5912C97.7408 17.7083 97.0693 16.7559 96.8711 16.4747L96.5107 15.9636L97.9391 13.8844C98.7247 12.7409 99.3676 11.7838 99.3676 11.7575C99.3676 11.7312 98.7721 11.7166 98.0443 11.7249L96.721 11.74L95.8851 13.1627L95.0491 14.5854L94.7247 14.0371C94.5464 13.7354 94.1684 13.0952 93.8848 12.6144L93.3692 11.74L92.0382 11.7249C90.8756 11.7117 90.7115 11.7204 90.7403 11.7942ZM105.867 13.4914C106.483 13.6579 106.957 14.0986 107.128 14.6645C107.175 14.8202 107.213 14.9683 107.213 14.9937C107.213 15.0191 106.169 15.0399 104.894 15.0399C103.343 15.0399 102.574 15.0206 102.574 14.9818C102.574 14.8966 102.898 14.2975 103.018 14.1606C103.613 13.4825 104.801 13.2034 105.867 13.4914ZM63.5932 13.8704C64.0897 14.1045 64.4383 14.4383 64.67 14.9014C65.2442 16.049 64.8501 17.5059 63.7978 18.1258C62.5234 18.8766 60.8629 18.4023 60.2491 17.1123C60.062 16.719 60.0548 16.6787 60.0548 16.027C60.0548 15.3841 60.0639 15.3312 60.236 14.9733C60.6862 14.0373 61.4664 13.605 62.6197 13.6526C63.1143 13.6729 63.2289 13.6986 63.5932 13.8704ZM74.6454 13.8704C75.142 14.1045 75.4905 14.4383 75.7223 14.9014C76.2964 16.049 75.9023 17.5059 74.8501 18.1258C73.5757 18.8766 71.9152 18.4023 71.3014 17.1123C71.1142 16.719 71.107 16.6787 71.107 16.027C71.107 15.3841 71.1161 15.3312 71.2883 14.9733C71.7384 14.0373 72.5186 13.605 73.6719 13.6526C74.1665 13.6729 74.2811 13.6986 74.6454 13.8704Z" fill="#020013"/>
<g clip-path="url(#clip0_143_64)">
<path opacity="0.78" d="M21.1959 16.1554C21.1959 16.2718 21.1959 16.3785 21.1862 16.4948C21.0505 20.49 18.482 24.0003 14.6922 25.3288L6.83163 28.0827L6.78316 28.1021L0.046875 30.4682L19.6936 1.31906L19.8584 1.07664C20.1976 0.630577 20.6531 0.203911 21.1959 0.0390625V6.72997V16.1554Z" fill="#020013"/>
<path opacity="0.78" d="M42.5183 30.3711L36.0437 28.102L35.7335 27.9954L27.8826 25.2414C23.9862 23.8741 21.3789 20.199 21.3789 16.0681V0.0292969C21.9217 0.194145 22.3869 0.523842 22.7262 0.969903L22.8909 1.21233L42.5183 30.3711Z" fill="#020013"/>
<path opacity="0.3" d="M21.1963 16.4951V20.4321C21.1963 23.7485 19.1027 26.6963 15.9817 27.7921L4.23438 31.9133L6.80289 28.1024L6.85135 28.083L14.712 25.3291C18.492 24.0006 21.0606 20.4806 21.1963 16.4951Z" fill="#020013"/>
<path d="M21.196 6.7207V16.4952C21.0603 20.4807 18.4918 24.0007 14.7021 25.3292L6.84143 28.0831L6.79297 28.1025L21.196 6.7207Z" fill="#020013"/>
<path opacity="0.3" d="M38.3408 31.5156L26.5935 27.3944C23.4725 26.2987 21.3789 23.3508 21.3789 20.0344V16.0684C21.3789 20.1993 23.9862 23.8744 27.8826 25.2417L35.7432 27.9956L36.0534 28.1023L38.3408 31.5156Z" fill="#020013"/>
<path d="M36.0437 28.092L35.7335 27.9853L27.8826 25.2314C23.9862 23.8641 21.3789 20.1889 21.3789 16.058V6.32227L36.0437 28.092Z" fill="#020013"/>
</g>
<defs>
<clipPath id="clip0_143_64">
<rect width="42.5501" height="32" fill="white"/>
</clipPath>
</defs>
</svg>